<?xml version="1.0" encoding="UTF-8" standalone="no"?>
<!DOCTYPE svg PUBLIC "-//W3C//DTD SVG 1.1//EN" "http://www.w3.org/Graphics/SVG/1.1/DTD/svg11.dtd">
<svg width="100%" height="100%" viewBox="0 0 117 117" version="1.1" xmlns="http://www.w3.org/2000/svg" xmlns:xlink="http://www.w3.org/1999/xlink" xml:space="preserve" xmlns:serif="http://www.serif.com/" style="fill-rule:evenodd;clip-rule:evenodd;stroke-linecap:round;stroke-linejoin:round;stroke-miterlimit:1.5;">
    <g transform="matrix(1,0,0,1,-541.667,-139.819)">
        <g transform="matrix(2,0,0,2,-600.267,9.50229)">
            <g transform="matrix(0.562394,0,0,0.562394,315.884,2.97195)">
                <circle cx="505.428" cy="162.436" r="44.453" style="fill:white;stroke:rgb(55,65,81);stroke-width:14.82px;"/>
            </g>
            <g transform="matrix(1.15425,0,0,1.15425,-93.349,-17.2576)">
                <circle cx="600.806" cy="96.671" r="12.995" style="fill:white;"/>
                <path d="M600.806,83.675C607.978,83.675 613.801,89.498 613.801,96.671C613.801,103.843 607.978,109.666 600.806,109.666C593.633,109.666 587.81,103.843 587.81,96.671C587.81,89.498 593.633,83.675 600.806,83.675ZM600.806,86.082C606.65,86.082 611.394,90.827 611.394,96.671C611.394,102.515 606.65,107.26 600.806,107.26C594.961,107.26 590.217,102.515 590.217,96.671C590.217,90.827 594.961,86.082 600.806,86.082Z" style="fill:rgb(55,65,81);"/>
            </g>
        </g>
    </g>
</svg>
